<svg width="769" height="768" viewBox="0 0 769 768" fill="none" xmlns="http://www.w3.org/2000/svg">
<path d="M384.001 47.9999C384.001 21.4902 405.576 -0.309681 431.878 2.9952C511.005 12.9373 585.517 47.3484 644.66 102.02C715.616 167.611 759.236 257.542 766.817 353.872C774.398 450.202 745.384 545.849 685.562 621.732C625.741 697.615 539.51 748.156 444.072 763.272C348.633 778.388 251.005 756.968 170.662 703.284C90.3187 649.601 33.168 567.601 10.6107 473.643C-11.9465 379.685 1.74805 280.676 48.9624 196.369C88.3168 126.097 148.548 70.3448 220.73 36.4378C244.724 25.1667 271.979 39.2327 280.171 64.4449C288.363 89.6571 274.3 116.394 250.796 128.655C201.432 154.407 160.262 194.102 132.722 243.277C97.3112 306.507 87.0403 380.764 103.958 451.232C120.876 521.701 163.739 583.2 223.997 623.463C284.254 663.726 357.475 679.791 429.054 668.454C500.632 657.117 565.306 619.212 610.172 562.299C655.038 505.386 676.799 433.651 671.113 361.404C665.427 289.156 632.712 221.708 579.495 172.515C538.108 134.257 486.686 109.227 431.78 99.99C405.638 95.5919 384.001 74.5096 384.001 47.9999Z" fill="white"/>
</svg>
