<svg width="768" height="768" viewBox="0 0 768 768" fill="none" xmlns="http://www.w3.org/2000/svg">
<path d="M384 48.0001C384 21.4904 405.573 -0.308898 431.875 2.99624C465.853 7.26577 499.18 16.0704 530.95 29.2304C577.539 48.5282 619.871 76.8134 655.529 112.471C691.187 148.129 719.472 190.461 738.77 237.05C751.93 268.821 760.734 302.147 765.004 336.125C768.309 362.428 746.51 384 720 384C693.49 384 672.407 362.364 668.009 336.222C664.414 314.851 658.41 293.903 650.077 273.787C635.604 238.846 614.39 207.097 587.647 180.353C560.904 153.61 529.155 132.396 494.213 117.923C474.097 109.59 453.149 103.586 431.778 99.9909C405.636 95.593 384 74.5098 384 48.0001Z" fill="white"/>
</svg>
