<svg width="768" height="768" viewBox="0 0 768 768" fill="none" xmlns="http://www.w3.org/2000/svg">
<path d="M384 47.9999C384 21.4902 405.573 -0.309173 431.876 2.996C475.839 8.52034 518.638 21.6281 558.332 41.8534C612.327 69.3648 659.043 109.265 694.663 158.29C730.282 207.316 753.793 264.076 763.272 323.929C770.241 367.93 769.482 412.685 761.151 456.204C756.166 482.241 728.767 496.021 703.555 487.83C678.343 479.638 664.978 452.545 668.873 426.323C673.165 397.438 673.052 367.974 668.454 338.947C661.344 294.057 643.711 251.487 616.997 214.718C590.282 177.948 555.245 148.024 514.749 127.39C488.564 114.048 460.577 104.835 431.779 99.9907C405.636 95.5927 384 74.5096 384 47.9999Z" fill="white"/>
</svg>
