<svg width="768" height="768" viewBox="0 0 768 768" fill="none" xmlns="http://www.w3.org/2000/svg">
<path d="M384 48C384 21.4903 405.573 -0.30918 431.876 2.996C485.846 9.77776 537.95 27.9748 584.639 56.5861C645.022 93.5885 693.996 146.568 726.146 209.668C758.297 272.767 772.373 343.528 766.816 414.128C762.52 468.718 746.616 521.567 720.38 569.216C707.593 592.438 677.276 597.078 655.83 581.496C634.383 565.914 630.044 536.017 641.852 512.282C658.219 479.385 668.206 443.521 671.112 406.596C675.279 353.646 664.723 300.575 640.61 253.251C616.497 205.926 579.766 166.191 534.48 138.44C502.898 119.087 468.014 106.087 431.779 99.9908C405.637 95.5927 384 74.5096 384 48Z" fill="white"/>
</svg>
