<svg width="768" height="768" viewBox="0 0 768 768" fill="none" xmlns="http://www.w3.org/2000/svg">
<path d="M384 47.9999C384 21.4902 405.574 -0.309399 431.877 2.99575C495.881 11.0384 557.105 35.1179 609.71 73.3374C675.315 121.003 724.147 188.214 749.206 265.337C774.265 342.461 774.265 425.539 749.206 502.662C729.113 564.503 693.735 619.97 646.682 664.098C627.345 682.232 597.078 677.276 581.496 655.83C565.914 634.383 571.026 604.608 589.591 585.684C620.614 554.06 644.081 515.539 657.904 472.997C676.699 415.154 676.699 352.846 657.904 295.003C639.11 237.16 602.486 186.752 553.282 151.003C517.094 124.71 475.466 107.34 431.779 99.9906C405.637 95.5924 384 74.5096 384 47.9999Z" fill="white"/>
</svg>
