<svg width="768" height="768" viewBox="0 0 768 768" fill="none" xmlns="http://www.w3.org/2000/svg">
<path d="M384 47.9999C384 21.4903 405.575 -0.309539 431.877 2.99547C505.953 12.3032 576.091 43.0676 633.388 92.0041C702.913 151.384 748.969 233.623 763.272 323.929C777.575 414.235 759.187 506.681 711.414 584.639C672.043 648.887 614.845 699.819 547.271 731.562C523.277 742.833 496.022 728.767 487.83 703.555C479.638 678.343 493.701 651.606 517.205 639.344C563.201 615.349 602.144 579.219 629.56 534.48C665.39 476.011 679.182 406.676 668.454 338.947C657.727 271.217 623.185 209.538 571.041 165.003C531.141 130.925 482.939 108.597 431.78 99.9903C405.638 95.5922 384 74.5096 384 47.9999Z" fill="white"/>
</svg>
