<svg width="768" height="768" viewBox="0 0 768 768" fill="none" xmlns="http://www.w3.org/2000/svg">
<path d="M384 48.0001C384 21.4904 405.573 -0.308898 431.876 2.99624C465.853 7.26577 499.18 16.0704 530.951 29.2304C577.54 48.5282 619.871 76.8134 655.529 112.471C691.187 148.129 719.472 190.461 738.77 237.05C758.068 283.639 768 333.573 768 384C768 434.428 758.068 484.362 738.77 530.951C719.472 577.54 691.187 619.871 655.529 655.529C619.871 691.187 577.539 719.472 530.95 738.77C499.18 751.93 465.853 760.734 431.875 765.004C405.573 768.309 384 746.51 384 720C384 693.49 405.636 672.407 431.778 668.009C453.149 664.414 474.097 658.41 494.213 650.077C529.155 635.604 560.904 614.39 587.647 587.647C614.39 560.904 635.604 529.155 650.077 494.213C664.551 459.271 672 421.821 672 384C672 346.179 664.551 308.729 650.077 273.787C635.604 238.846 614.39 207.097 587.647 180.353C560.904 153.61 529.155 132.396 494.213 117.923C474.097 109.59 453.149 103.586 431.779 99.9909C405.636 95.593 384 74.5098 384 48.0001Z" fill="white"/>
</svg>
