<svg width="768" height="768" viewBox="0 0 768 768" fill="none" xmlns="http://www.w3.org/2000/svg">
<path d="M384 48.0001C384 21.4904 405.573 -0.308913 431.875 2.99624C470.844 7.8929 508.926 18.7512 544.765 35.2731C595.174 58.5121 639.946 92.4034 675.996 134.612C712.045 176.821 738.516 226.343 753.583 279.767C768.65 333.191 771.956 389.246 763.272 444.071C754.589 498.895 734.123 551.186 703.284 597.339C672.446 643.492 631.968 682.411 584.639 711.414C537.311 740.417 484.258 758.814 429.134 765.338C389.944 769.977 350.37 768.536 311.796 761.151C285.759 756.166 271.978 728.767 280.17 703.555C288.362 678.343 315.455 664.978 341.676 668.873C366.836 672.611 392.451 673.01 417.851 670.004C459.193 665.111 498.983 651.313 534.48 629.56C569.976 607.808 600.334 578.619 623.463 544.004C646.592 509.389 661.942 470.172 668.454 429.053C674.967 387.935 672.487 345.893 661.187 305.825C649.887 265.757 630.034 228.615 602.997 196.959C575.96 165.303 542.381 139.884 504.574 122.455C481.346 111.747 456.862 104.211 431.778 99.9909C405.636 95.593 384 74.5098 384 48.0001Z" fill="white"/>
</svg>
