<svg width="768" height="768" viewBox="0 0 768 768" fill="none" xmlns="http://www.w3.org/2000/svg">
<path d="M384 47.9999C384 21.4902 405.573 -0.309173 431.876 2.996C475.839 8.52034 518.638 21.6281 558.333 41.8534C612.327 69.3648 659.043 109.265 694.663 158.29C730.282 207.316 753.793 264.076 763.273 323.929C772.752 383.782 767.932 445.029 749.206 502.662C730.48 560.296 698.379 612.679 655.529 655.529C612.679 698.379 560.296 730.479 502.663 749.206C445.03 767.932 383.783 772.752 323.93 763.272C279.928 756.303 237.598 741.751 198.784 720.379C175.562 707.593 170.923 677.276 186.504 655.83C202.086 634.383 231.983 630.044 255.718 641.852C281.863 654.859 309.92 663.857 338.947 668.454C383.837 675.564 429.772 671.949 472.997 657.904C516.222 643.859 555.509 619.784 587.647 587.647C619.785 555.509 643.86 516.222 657.905 472.997C671.949 429.772 675.564 383.837 668.454 338.947C661.345 294.057 643.712 251.487 616.997 214.718C590.283 177.948 555.245 148.024 514.749 127.39C488.564 114.048 460.577 104.835 431.779 99.9907C405.637 95.5927 384 74.5096 384 47.9999Z" fill="white"/>
</svg>
