<svg width="768" height="768" viewBox="0 0 768 768" fill="none" xmlns="http://www.w3.org/2000/svg">
<path d="M384 47.9999C384 21.4903 405.573 -0.309175 431.876 2.996C480.84 9.14866 528.313 24.7024 571.631 48.9615C628.956 81.065 677.085 127.34 711.414 183.36C745.743 239.381 765.125 303.273 767.704 368.924C770.284 434.576 755.975 499.791 726.147 558.332C696.319 616.873 651.969 666.782 597.339 703.284C542.71 739.786 479.628 761.661 414.129 766.816C348.629 771.971 282.902 760.234 223.235 732.727C178.148 711.941 137.66 682.677 103.902 646.681C85.7681 627.344 90.7239 597.078 112.171 581.496C133.617 565.914 163.392 571.026 182.316 589.59C205.853 612.68 233.268 631.642 263.426 645.545C308.177 666.175 357.472 674.978 406.597 671.112C455.721 667.246 503.033 650.84 544.005 623.463C584.977 596.086 618.239 558.655 640.61 514.749C662.981 470.843 673.713 421.932 671.778 372.693C669.844 323.454 655.308 275.536 629.561 233.52C603.814 191.505 567.717 156.799 524.723 132.721C495.748 116.494 464.294 105.461 431.779 99.9907C405.637 95.5927 384 74.5096 384 47.9999Z" fill="white"/>
</svg>
