<svg width="768" height="768" viewBox="0 0 768 768" fill="none" xmlns="http://www.w3.org/2000/svg">
<path d="M384 48C384 21.4903 405.573 -0.30918 431.876 2.996C485.846 9.77776 537.95 27.9748 584.64 56.5861C645.022 93.5885 693.996 146.568 726.147 209.668C758.297 272.767 772.373 343.528 766.816 414.128C761.26 484.728 736.289 552.416 694.663 609.709C653.037 667.003 596.378 711.669 530.951 738.77C465.523 765.871 393.876 774.351 323.929 763.272C253.983 752.194 188.463 721.989 134.612 675.996C92.9733 640.433 59.5658 596.502 36.4384 547.27C25.1669 523.276 39.233 496.022 64.4452 487.83C89.6573 479.638 116.395 493.7 128.656 517.204C145.651 549.782 168.794 578.942 196.959 602.997C237.347 637.491 286.487 660.145 338.947 668.454C391.407 676.763 445.142 670.403 494.213 650.077C543.284 629.752 585.778 596.252 616.997 553.282C648.216 510.312 666.945 459.546 671.112 406.596C675.28 353.646 664.723 300.575 640.61 253.251C616.497 205.926 579.767 166.191 534.48 138.44C502.898 119.087 468.014 106.087 431.779 99.9908C405.637 95.5927 384 74.5096 384 48Z" fill="white"/>
</svg>
