<svg width="768" height="768" viewBox="0 0 768 768" fill="none" xmlns="http://www.w3.org/2000/svg">
<path d="M384 48C384 21.4904 405.573 -0.309171 431.876 2.996C490.859 10.4077 547.547 31.4463 597.339 64.7157C660.487 106.91 709.705 166.883 738.769 237.05C767.833 307.216 775.438 384.426 760.621 458.915C745.804 533.403 709.232 601.826 655.529 655.529C601.825 709.232 533.403 745.805 458.914 760.622C384.426 775.438 307.216 767.834 237.049 738.77C166.882 709.706 106.91 660.487 64.7152 597.339C31.4458 547.548 10.4072 490.86 2.99551 431.876C-0.309659 405.573 21.4899 384 47.9996 384C74.5092 384 95.5922 405.637 99.9902 431.779C106.713 471.738 121.825 510.014 144.536 544.004C176.182 591.366 221.162 628.279 273.787 650.077C326.412 671.875 384.319 677.579 440.186 666.466C496.052 655.354 547.369 627.924 587.646 587.647C627.924 547.369 655.353 496.053 666.466 440.186C677.578 384.32 671.875 326.412 650.077 273.787C628.279 221.162 591.365 176.183 544.004 144.537C510.013 121.825 471.737 106.713 431.778 99.9907C405.636 95.5927 384 74.5097 384 48Z" fill="white"/>
</svg>
