<svg width="768" height="768" viewBox="0 0 768 768" fill="none" xmlns="http://www.w3.org/2000/svg">
<path d="M384 47.9999C384 21.4902 405.574 -0.309399 431.877 2.99575C495.881 11.0384 557.105 35.1179 609.71 73.3374C675.315 121.003 724.147 188.214 749.206 265.337C774.265 342.461 774.265 425.539 749.206 502.662C724.147 579.786 675.315 646.997 609.71 694.662C544.104 742.328 465.093 768 384 768C302.907 768 223.896 742.328 158.29 694.662C92.6849 646.997 43.8533 579.786 18.7943 502.662C-1.29887 440.822 -5.28068 375.154 6.84884 311.796C11.8335 285.76 39.2328 271.978 64.445 280.17C89.6572 288.362 103.022 315.455 99.1264 341.677C92.6165 385.497 96.2729 430.455 110.096 472.997C128.89 530.84 165.514 581.248 214.718 616.997C263.922 652.746 323.18 672 384 672C444.82 672 504.078 652.746 553.282 616.997C602.486 581.248 639.11 530.84 657.904 472.997C676.699 415.154 676.699 352.846 657.904 295.003C639.11 237.16 602.486 186.752 553.282 151.003C517.094 124.71 475.466 107.34 431.779 99.9906C405.637 95.5924 384 74.5096 384 47.9999Z" fill="white"/>
</svg>
