<svg width="768" height="768" viewBox="0 0 768 768" fill="none" xmlns="http://www.w3.org/2000/svg">
<path d="M384 48.0001C384 21.4904 405.573 -0.309314 431.876 2.99572C500.912 11.6703 566.62 38.9913 621.732 82.4384C689.469 135.838 737.255 210.487 757.39 294.357C777.526 378.228 768.838 466.435 732.727 544.766C696.616 623.096 635.185 686.988 558.332 726.147C481.48 765.305 393.682 777.449 309.085 760.622C224.489 743.794 148.021 698.976 92.0042 633.388C35.9869 567.8 3.68248 485.263 0.296203 399.076C-2.45898 328.951 14.0601 259.734 47.6203 198.784C60.4069 175.562 90.7237 170.922 112.171 186.504C133.617 202.086 137.956 231.983 126.148 255.717C104.729 298.771 94.3144 346.749 96.2222 395.307C98.7619 459.947 122.99 521.85 165.003 571.041C207.016 620.232 264.367 653.846 327.814 666.466C391.261 679.087 457.11 669.979 514.749 640.61C572.389 611.241 618.462 563.322 645.545 504.574C672.629 445.826 679.144 379.671 664.043 316.768C648.941 253.865 613.102 197.878 562.299 157.829C524.136 127.744 479.2 107.968 431.779 99.9906C405.637 95.5925 384 74.5098 384 48.0001Z" fill="white"/>
</svg>
