<svg width="769" height="768" viewBox="0 0 769 768" fill="none" xmlns="http://www.w3.org/2000/svg">
<path d="M384.001 47.9999C384.001 21.4903 405.575 -0.309539 431.878 2.99547C505.953 12.3032 576.091 43.0676 633.389 92.0041C702.914 151.384 748.97 233.623 763.273 323.929C777.576 414.235 759.187 506.681 711.414 584.639C663.641 662.598 589.62 720.952 502.663 749.206C415.706 777.46 321.522 773.759 237.05 738.77C152.578 703.78 83.363 639.798 41.854 558.332C0.344902 476.866 -10.7338 383.262 10.6105 294.357C28.2008 221.088 66.8608 154.973 121.318 103.902C140.655 85.7681 170.923 90.7234 186.505 112.17C202.087 133.617 196.974 163.391 178.409 182.316C142.079 219.35 116.207 265.746 103.958 316.768C87.9498 383.447 96.2588 453.649 127.391 514.749C158.522 575.849 210.434 623.835 273.788 650.077C337.141 676.319 407.78 679.095 472.997 657.904C538.215 636.714 593.731 592.948 629.561 534.48C665.391 476.011 679.182 406.676 668.455 338.947C657.727 271.217 623.185 209.538 571.042 165.003C531.142 130.925 482.94 108.597 431.78 99.9903C405.638 95.5922 384.001 74.5096 384.001 47.9999Z" fill="white"/>
</svg>
