<svg width="2048" height="2048" viewBox="0 0 2048 2048" fill="none" xmlns="http://www.w3.org/2000/svg">
<path fill-rule="evenodd" clip-rule="evenodd" d="M2048 0H0V2048H2048V0ZM141.951 197.889C128 225.27 128 261.113 128 332.8V1715.2C128 1786.89 128 1822.73 141.951 1850.11C154.223 1874.2 173.804 1893.78 197.889 1906.05C225.27 1920 261.113 1920 332.8 1920H1715.2C1786.89 1920 1822.73 1920 1850.11 1906.05C1874.2 1893.78 1893.78 1874.2 1906.05 1850.11C1920 1822.73 1920 1786.89 1920 1715.2V332.8C1920 261.113 1920 225.27 1906.05 197.889C1893.78 173.804 1874.2 154.223 1850.11 141.951C1822.73 128 1786.89 128 1715.2 128H332.8C261.113 128 225.27 128 197.889 141.951C173.804 154.223 154.223 173.804 141.951 197.889Z" fill="black"/>
</svg>
