<svg width="339" height="94" viewBox="0 0 339 94" fill="none" xmlns="http://www.w3.org/2000/svg">
<path d="M0.386497 92V2.39999H27.0105L51.3305 82.784H53.3785V2.39999H67.0745V92H40.4505L16.1305 11.488H14.0825V92H0.386497ZM109.186 93.792C98.1775 93.792 89.4308 90.72 82.9455 84.576C76.4602 78.3467 73.2175 69.3867 73.2175 57.696V36.704C73.2175 25.0133 76.4602 16.096 82.9455 9.952C89.4308 3.72266 98.1775 0.607994 109.186 0.607994C120.194 0.607994 128.94 3.72266 135.425 9.952C141.996 16.096 145.282 25.0133 145.282 36.704V57.696C145.282 69.3867 141.996 78.3467 135.425 84.576C128.94 90.72 120.194 93.792 109.186 93.792ZM109.186 81.376C116.268 81.376 121.73 79.328 125.569 75.232C129.409 71.0507 131.329 65.376 131.329 58.208V36.192C131.329 29.024 129.409 23.392 125.569 19.296C121.73 15.1147 116.268 13.024 109.186 13.024C102.274 13.024 96.8548 15.1147 92.9295 19.296C89.0042 23.392 87.0415 29.024 87.0415 36.192V58.208C87.0415 65.376 89.0042 71.0507 92.9295 75.232C96.8548 79.328 102.274 81.376 109.186 81.376ZM151.407 92V2.39999H177.391L196.975 82.784H199.023L218.607 2.39999H244.591V92H231.151V12.128H229.103L209.646 92H186.351L166.895 12.128H164.847V92H151.407ZM253.041 92V2.39999H266.865V92H253.041ZM305.766 93.792C299.024 93.792 293.051 92.5973 287.846 90.208C282.64 87.8187 278.544 84.32 275.558 79.712C272.656 75.0187 271.206 69.344 271.206 62.688V59.488H284.902V62.688C284.902 69.0027 286.779 73.7387 290.534 76.896C294.374 80.0533 299.451 81.632 305.766 81.632C312.166 81.632 316.987 80.3093 320.23 77.664C323.472 74.9333 325.094 71.4347 325.094 67.168C325.094 64.352 324.326 62.048 322.79 60.256C321.254 58.464 319.078 57.056 316.262 56.032C313.446 54.9227 310.075 53.8987 306.15 52.96L301.414 51.808C295.696 50.4427 290.704 48.7787 286.438 46.816C282.256 44.768 279.014 42.08 276.71 38.752C274.406 35.424 273.254 31.1573 273.254 25.952C273.254 20.6613 274.534 16.1387 277.094 12.384C279.739 8.62933 283.366 5.728 287.974 3.67999C292.582 1.63199 298 0.607994 304.23 0.607994C310.459 0.607994 316.006 1.67466 320.87 3.808C325.819 5.94133 329.702 9.09866 332.518 13.28C335.334 17.4613 336.742 22.7093 336.742 29.024V33.632H323.046V29.024C323.046 25.184 322.235 22.0693 320.614 19.68C319.078 17.2907 316.902 15.5413 314.086 14.432C311.27 13.3227 307.984 12.768 304.23 12.768C298.768 12.768 294.502 13.92 291.43 16.224C288.443 18.4427 286.95 21.5573 286.95 25.568C286.95 28.2987 287.59 30.56 288.87 32.352C290.235 34.0587 292.198 35.4667 294.758 36.576C297.318 37.6853 300.518 38.6667 304.358 39.52L309.094 40.672C314.896 41.952 320.016 43.616 324.454 45.664C328.891 47.6267 332.39 50.3147 334.95 53.728C337.51 57.1413 338.79 61.536 338.79 66.912C338.79 72.288 337.424 76.9813 334.694 80.992C332.048 85.0027 328.251 88.16 323.302 90.464C318.352 92.6827 312.507 93.792 305.766 93.792Z" fill="white"/>
</svg>
