<svg width="130" height="128" viewBox="0 0 130 128" fill="none" xmlns="http://www.w3.org/2000/svg">
<path d="M56.2326 65.3773L58.5055 63.0623V54.8905L56.2326 52.5691H53.1002L50.9329 54.8905V63.0623L53.1002 65.3773H56.2326Z" fill="white"/>
<path d="M76.6707 65.2689L78.8375 62.948V54.8905L76.6707 52.5691H73.5383L71.2654 54.8905V62.948L73.5383 65.2689H76.6707Z" fill="white"/>
<path d="M124.69 46.495L113.443 55.3283L113.007 58.5338L112.503 58.9727H109.439L107.166 61.294V64.3848L109.221 66.4835V67.5898L107.06 69.9047L107.166 84.3728L109.439 86.5858L109.545 87.6862L109.607 87.7369L107.49 89.8992V93.0983L106.518 94.0967H90.6201L89.6487 93.0983V91.4448V76.862L89.219 76.4231L87.3753 74.547V73.4407L87.2135 73.2752L89.4306 71.0115V67.9207L89.2688 67.7489L89.6487 67.6981L90.296 66.9283L93.4347 66.5914L101.007 56.6577L100.69 53.5542L101.437 52.7912L101.412 52.4858L101.437 52.4602L101.343 51.5574L101.331 51.3539L103.597 49.0326L103.386 30.4816L101.113 28.2748V28.0522L101.219 27.0601L100.353 25.9535L100.677 22.7483L92.9986 12.8082L89.8663 12.4775L89.4055 11.8479L89.4306 11.8162V8.72537L87.2697 6.4041H84.4611H84.243L83.1596 5.52012V2.32126L80.7806 0H65.1002H64.6705H48.9905L46.6115 2.32126V5.52012L45.5279 6.4041H45.31H42.5014L40.3343 8.72537V11.8162L40.3655 11.8479L39.9046 12.4775L36.7661 12.8082L29.0878 22.7483L29.4116 25.9535L28.5522 27.0601L28.6581 28.0522V28.2748L26.3851 30.4816L26.1672 49.0326L28.4402 51.3539L28.3343 52.7912L29.175 53.6497L28.8761 56.6577L36.4423 66.5914L39.5808 66.9283L40.2285 67.6981L40.5087 67.7361L40.3343 67.9207V71.0115L42.5014 73.3324L42.3893 73.4407V74.547L40.5523 76.4231L40.1226 76.862V91.4448V93.0983L39.1449 94.0967H23.2528L22.2751 93.0983V89.8992L20.1142 87.6862L20.2201 86.5858L22.4931 84.3728L22.5989 69.9047L20.4381 67.5898L20.5377 66.4958L22.5989 64.3848V61.294L20.3322 58.9727H17.2683L16.7639 58.5338L16.328 55.3283L5.0815 46.495L1.94915 46.9338L0 49.4778L0.429685 52.6764L11.6762 61.5167L14.8148 61.0714L15.0577 61.2684L15.0327 61.294V64.3848L17.1936 66.7057H17.3057V67.3671L15.0327 69.6885L14.8148 84.1566L16.9757 86.4716V87.5778H16.8698L14.7089 89.8992V93.0983L16.8698 95.3113H20.0084L20.9798 96.3033V99.5024L23.1407 101.715H39.039L41.312 99.5024V96.3033L42.2835 95.3113H45.5279L47.689 93.0983V91.9979V76.862L45.7457 74.547L45.6338 73.3324L47.9066 71.0115V67.9207L45.6338 65.5994H42.5886L42.0655 64.9379L42.3893 61.7329L34.7111 51.7928L31.5787 51.4618L31.5663 51.449L31.5787 51.3539L33.8455 49.1469L33.9576 30.7042L31.7967 28.3829L31.8278 28.0331L31.9026 27.9441L35.0349 27.607L42.6073 17.6733L42.2835 14.4681L42.5326 14.1374H45.6338L47.9066 11.8162V8.94796V8.72537L48.9905 7.8414H64.6705H65.1002H80.7806L81.8645 8.72537V8.94796V11.8162L84.131 14.1374H87.2322L87.4878 14.4681L87.1637 17.6733L94.7298 27.607L97.8686 27.9441L97.9431 28.0331L97.9746 28.3829L95.8137 30.7042L95.9193 49.1469L98.1922 51.3539L98.205 51.4746L95.1659 51.7928L87.4878 61.7329L87.8114 64.9379L87.2322 65.6757L87.1637 65.5994H84.0254L81.8645 67.9207V71.0115L84.0254 73.3324H84.131L84.0254 74.547L82.1881 76.862V91.9979V93.0983L84.3491 95.3113H87.4878L88.4592 96.3033V99.5024L90.7321 101.715H106.63L108.791 99.5024V96.3033L109.763 95.3113H112.901L115.062 93.0983V89.8992L112.901 87.5778H112.683V86.4716L114.844 84.1566L114.632 69.6885L112.359 67.3671V66.7057H112.578L114.738 64.3848V61.294L114.713 61.2684L114.957 61.0714L118.089 61.5167L129.335 52.6764L129.771 49.4778L127.822 46.9338L124.69 46.495Z" fill="white"/>
<path d="M55.0424 94.6438L52.7695 96.9652V100.17L51.7981 101.163H48.6657L33.5208 116.292V119.382L32.5493 120.381H16.651L15.6795 119.382V116.184L13.4066 113.862H10.2742L8.10712 116.184V119.382L10.2742 121.596H13.4066L14.3843 122.588V125.787L16.5451 128H32.4435L34.7102 125.787V122.588L35.6817 121.596L35.7938 121.704H38.9324L54.071 106.574V103.369L54.9364 102.377H57.9631L60.4477 100.17V96.9652L58.1811 94.6438H55.0424Z" fill="white"/>
<path d="M116.577 113.862L114.304 116.184V119.382L113.332 120.381H97.434L96.4625 119.382V116.292L81.3238 101.163H78.1851L77.2137 100.17V96.9652L74.9408 94.6438H71.8084L69.5355 96.9652V100.17L72.0265 102.377H75.0528L75.9186 103.369V106.574L91.0573 121.704H94.1896L94.3016 121.596L95.2731 122.588V125.787L97.546 128H113.444L115.605 125.787V122.588L116.577 121.596H119.715L121.876 119.382V116.184L119.715 113.862H116.577Z" fill="white"/>
</svg>
