<svg width="128" height="128" viewBox="0 0 128 128" fill="none" xmlns="http://www.w3.org/2000/svg">
<g clip-path="url(#clip0_11_575)">
<path d="M76.068 71.468C65.078 77.7897 52.4691 80.7335 39.816 79.932C34.9726 79.9546 30.1759 78.9857 25.721 77.085C21.2661 75.1843 17.2473 72.392 13.912 68.88C11.4401 65.756 9.67063 62.1358 8.72427 58.2661C7.7779 54.3964 7.67685 50.3682 8.42799 46.456C8.86264 43.5061 9.75186 40.6415 11.064 37.964L11.244 37.596C15.8678 28.8118 22.7019 21.3849 31.072 16.048C39.4858 10.6871 49.138 7.58252 59.0994 7.03328C69.0608 6.48403 78.9958 8.50857 87.948 12.912C96.8661 17.2948 104.491 23.9208 110.076 32.14C115.634 40.3115 118.942 49.8024 119.667 59.6582C120.392 69.5139 118.509 79.3869 114.208 88.284C109.886 97.2136 103.31 104.861 95.128 110.472C86.9021 116.108 77.3613 119.526 67.428 120.396L68.036 127.308C79.1881 126.33 89.899 122.491 99.132 116.16C108.321 109.864 115.707 101.278 120.56 91.252C125.386 81.2655 127.498 70.1839 126.681 59.1224C125.864 48.0608 122.149 37.4095 115.908 28.24C109.634 19.0154 101.068 11.5814 91.052 6.66798C80.9967 1.73314 69.8396 -0.528002 58.6563 0.102553C47.4731 0.733108 36.6409 4.23409 27.204 10.268C17.8192 16.2672 10.1606 24.6095 4.98399 34.472L4.73999 34.968C3.11222 38.2906 2.01235 41.8466 1.47999 45.508C0.590072 50.3804 0.755126 55.3869 1.96403 60.1901C3.17293 64.9932 5.39758 69.4814 8.48799 73.352C12.4212 77.6304 17.2009 81.0445 22.5238 83.3775C27.8466 85.7104 33.5963 86.9114 39.408 86.904C54.7085 87.8582 69.9066 83.8321 82.728 75.428L76.068 71.468Z" fill="white"/>
<path d="M89.492 79.332C76.4722 89.8204 60.3543 95.7175 43.64 96.108C16.076 97.612 4.584 88.76 4.48 88.668L2.256 91.38L4.496 88.716L0 94.044C0.488 94.444 11.504 103.244 37.38 103.244C39.5 103.244 41.724 103.244 44.04 103.064C73.8 101.424 90.152 88.592 95.848 83.112L89.492 79.332Z" fill="white"/>
<path d="M101.44 86.496C97.6543 91.4094 93.0067 95.5935 87.724 98.844C69.072 110.74 45.348 112.276 28.736 111.448L28.4 118.4C31.2 118.536 33.872 118.6 36.476 118.6C83.316 118.6 102.244 97.512 107.532 89.984L101.436 86.444M99.656 60.224C100.752 60.2106 101.819 59.8734 102.724 59.2548C103.629 58.6362 104.33 57.7638 104.74 56.7475C105.15 55.7312 105.251 54.6162 105.029 53.543C104.807 52.4698 104.272 51.4862 103.493 50.7159C102.713 49.9457 101.723 49.4232 100.647 49.2143C99.5713 49.0054 98.4577 49.1193 97.4464 49.5418C96.4351 49.9642 95.5714 50.6763 94.9638 51.5884C94.3563 52.5006 94.0321 53.5721 94.032 54.668C94.0426 56.1504 94.6405 57.5682 95.6948 58.6105C96.749 59.6527 98.1735 60.2344 99.656 60.228V60.224Z" fill="white"/>
</g>
<defs>
<clipPath id="clip0_11_575">
<rect width="128" height="128" fill="white"/>
</clipPath>
</defs>
</svg>
