<svg width="105" height="138" viewBox="0 0 105 138" fill="none" xmlns="http://www.w3.org/2000/svg">
<path d="M52.4587 137.646C36.8347 137.646 24.2977 133.362 14.8477 124.794C5.39766 116.1 0.672656 102.996 0.672656 85.482V52.218C0.672656 35.208 5.39766 22.293 14.8477 13.473C24.2977 4.52699 36.8347 0.0539913 52.4587 0.0539913C68.2087 0.0539913 80.7457 4.52699 90.0697 13.473C99.5197 22.293 104.245 35.208 104.245 52.218V85.482C104.245 102.996 99.5197 116.1 90.0697 124.794C80.7457 133.362 68.2087 137.646 52.4587 137.646ZM52.4587 116.1C61.9087 116.1 68.8387 113.517 73.2487 108.351C77.7847 103.185 80.0527 95.814 80.0527 86.238V51.084C80.0527 41.382 77.5327 34.074 72.4927 29.16C67.5787 24.12 60.9007 21.6 52.4587 21.6C43.7647 21.6 36.9607 24.183 32.0467 29.349C27.2587 34.515 24.8647 41.76 24.8647 51.084V86.238C24.8647 96.192 27.1327 103.689 31.6687 108.729C36.3307 113.643 43.2607 116.1 52.4587 116.1Z" fill="white"/>
</svg>
