<svg width="98" height="135" viewBox="0 0 98 135" fill="none" xmlns="http://www.w3.org/2000/svg">
<path d="M0.328626 135V119.124C0.328626 109.926 1.84063 102.303 4.86462 96.255C7.88863 90.081 12.2356 85.041 17.9056 81.135C23.7016 77.103 30.7576 73.827 39.0736 71.307L51.7366 67.338C56.3986 65.826 60.3046 63.999 63.4546 61.857C66.6046 59.589 68.9986 56.88 70.6366 53.73C72.4006 50.58 73.2826 46.989 73.2826 42.957V42.201C73.2826 35.901 71.1406 30.924 66.8566 27.27C62.5726 23.49 56.7136 21.6 49.2796 21.6C41.9716 21.6 36.0496 23.616 31.5136 27.648C27.1036 31.554 24.8986 37.224 24.8986 44.658V48.06H0.706626V45.036C0.706626 35.46 2.84863 27.333 7.13263 20.655C11.4166 13.977 17.2126 8.87399 24.5206 5.34599C31.9546 1.81799 40.2076 0.0539913 49.2796 0.0539913C58.3516 0.0539913 66.5416 1.81799 73.8496 5.34599C81.1576 8.74799 86.8906 13.599 91.0486 19.899C95.3326 26.073 97.4746 33.381 97.4746 41.823V43.713C97.4746 52.155 95.7106 59.337 92.1826 65.259C88.7806 71.055 84.1186 75.843 78.1966 79.623C72.2746 83.277 65.5336 86.301 57.9736 88.695L45.8776 92.475C40.4596 94.113 36.2386 95.94 33.2146 97.956C30.1906 99.846 28.0486 101.988 26.7886 104.382C25.6546 106.65 25.0876 109.422 25.0876 112.698V113.454H96.3406V135H0.328626Z" fill="white"/>
</svg>
