<svg width="102" height="136" viewBox="0 0 102 136" fill="none" xmlns="http://www.w3.org/2000/svg">
<path d="M51.4624 135.646C41.5084 135.646 32.6883 133.882 25.0023 130.354C17.3163 126.826 11.2683 121.786 6.85835 115.234C2.57435 108.556 0.432348 100.681 0.432348 91.609V88.207H24.6243V90.853C24.6243 97.909 27.0813 103.579 31.9953 107.863C36.9093 112.021 43.3984 114.1 51.4624 114.1C59.6524 114.1 65.9524 112.147 70.3624 108.241C74.8984 104.335 77.1664 99.421 77.1664 93.499V91.609C77.1664 87.577 76.1584 84.301 74.1424 81.781C72.1264 79.261 69.4174 77.434 66.0153 76.3C62.6133 75.04 58.7703 74.41 54.4864 74.41H28.0263V47.95L70.7404 25.27V22.246H3.83435V0.699991H97.5784V32.83L57.6993 53.998V57.022H64.6924C70.6144 57.022 76.3474 58.219 81.8914 60.613C87.5614 63.007 92.2234 66.724 95.8774 71.764C99.5314 76.678 101.358 83.104 101.358 91.042V93.31C101.358 101.878 99.2794 109.375 95.1214 115.801C90.9634 122.101 85.1044 127.015 77.5444 130.543C70.1104 133.945 61.4164 135.646 51.4624 135.646Z" fill="white"/>
</svg>
