<svg width="101" height="136" viewBox="0 0 101 136" fill="none" xmlns="http://www.w3.org/2000/svg">
<path d="M50.6039 135.646C40.2719 135.646 31.3259 133.819 23.7659 130.165C16.3319 126.511 10.5989 121.345 6.56691 114.667C2.53491 107.989 0.518915 100.24 0.518915 91.42V89.53H25.0889V91.231C25.0889 97.531 27.1679 102.949 31.3259 107.485C35.6099 111.895 41.9099 114.1 50.2259 114.1C58.5419 114.1 64.9049 111.895 69.3149 107.485C73.8509 102.949 76.1189 97.09 76.1189 89.908V88.018C76.1189 80.962 73.8509 75.355 69.3149 71.197C64.9049 67.039 59.3609 64.96 52.6829 64.96C49.0289 64.96 46.0049 65.464 43.6109 66.472C41.2169 67.48 39.2639 68.74 37.7519 70.252C36.2399 71.764 34.9799 73.276 33.9719 74.788H4.67691V0.699991H95.0189V22.624H28.8689V54.943H32.2709C33.5309 53.305 35.2319 51.73 37.3739 50.218C39.5159 48.706 42.2879 47.446 45.6899 46.438C49.0919 45.43 53.1239 44.926 57.7859 44.926C65.5979 44.926 72.7169 46.564 79.1429 49.84C85.5689 53.116 90.6719 57.967 94.4519 64.393C98.3579 70.693 100.311 78.505 100.311 87.829V90.097C100.311 99.421 98.2949 107.485 94.2629 114.289C90.3569 121.093 84.6869 126.385 77.2529 130.165C69.8189 133.819 60.9359 135.646 50.6039 135.646Z" fill="white"/>
</svg>
