<svg width="101" height="138" viewBox="0 0 101 138" fill="none" xmlns="http://www.w3.org/2000/svg">
<path d="M50.0515 137.646C39.9715 137.646 31.2145 135.756 23.7805 131.976C16.3465 128.196 10.6135 122.967 6.5815 116.289C2.5495 109.611 0.533496 101.925 0.533496 93.231V48.06C0.533496 37.35 2.6755 28.467 6.9595 21.411C11.3695 14.229 17.3545 8.87399 24.9145 5.34599C32.6005 1.81799 41.3575 0.0539913 51.1855 0.0539913C61.0135 0.0539913 69.5185 1.69199 76.7005 4.968C84.0085 8.24399 89.6155 12.969 93.5215 19.143C97.5535 25.317 99.5695 32.688 99.5695 41.256H74.9995C74.9995 35.964 73.1725 31.365 69.5185 27.459C65.8645 23.553 59.7535 21.6 51.1855 21.6C42.7435 21.6 36.1915 23.805 31.5295 28.215C26.9935 32.625 24.7255 38.736 24.7255 46.548V60.156H28.1275C30.2695 57.636 33.5455 55.242 37.9555 52.974C42.3655 50.706 48.7915 49.572 57.2335 49.572C64.9195 49.572 71.9755 51.21 78.4015 54.486C84.9535 57.762 90.2455 62.55 94.2775 68.85C98.3095 75.024 100.325 82.521 100.325 91.341V93.609C100.325 102.303 98.2465 109.989 94.0885 116.667C89.9305 123.219 84.0715 128.385 76.5115 132.165C68.9515 135.819 60.1315 137.646 50.0515 137.646ZM50.4295 116.1C58.3675 116.1 64.6045 114.021 69.1405 109.863C73.8025 105.705 76.1335 100.161 76.1335 93.231V91.719C76.1335 87.057 75.0625 83.025 72.9205 79.623C70.9045 76.221 67.9435 73.575 64.0375 71.685C60.2575 69.795 55.7215 68.85 50.4295 68.85C45.2635 68.85 40.7275 69.795 36.8215 71.685C32.9155 73.575 29.8915 76.221 27.7495 79.623C25.7335 83.025 24.7255 87.057 24.7255 91.719V93.231C24.7255 100.161 26.9935 105.705 31.5295 109.863C36.1915 114.021 42.4915 116.1 50.4295 116.1Z" fill="white"/>
</svg>
