<svg width="104" height="138" viewBox="0 0 104 138" fill="none" xmlns="http://www.w3.org/2000/svg">
<path d="M52.0369 137.646C41.9569 137.646 33.0109 136.134 25.1989 133.11C17.5129 130.086 11.4649 125.739 7.05491 120.069C2.77091 114.273 0.628914 107.469 0.628914 99.657V97.389C0.628914 91.341 1.69991 86.364 3.84191 82.458C5.98391 78.426 8.62991 75.276 11.7799 73.008C15.0559 70.74 18.1429 69.165 21.0409 68.283V64.881C18.1429 63.873 15.2449 62.235 12.3469 59.967C9.44891 57.699 7.05491 54.675 5.16491 50.895C3.40091 47.115 2.51891 42.579 2.51891 37.287V35.019C2.51891 28.089 4.53491 22.041 8.56691 16.875C12.7249 11.583 18.5209 7.48799 25.9549 4.58999C33.3889 1.56599 42.0829 0.0539913 52.0369 0.0539913C61.9909 0.0539913 70.6849 1.56599 78.1189 4.58999C85.5529 7.48799 91.2859 11.583 95.3179 16.875C99.4759 22.041 101.555 28.089 101.555 35.019V37.287C101.555 42.579 100.61 47.115 98.7199 50.895C96.9559 54.675 94.6249 57.699 91.7269 59.967C88.9549 62.235 86.0569 63.873 83.0329 64.881V68.283C86.0569 69.165 89.1439 70.74 92.2939 73.008C95.4439 75.276 98.0899 78.426 100.232 82.458C102.374 86.364 103.445 91.341 103.445 97.389V99.657C103.445 107.469 101.24 114.273 96.8299 120.069C92.5459 125.739 86.4979 130.086 78.6859 133.11C70.9999 136.134 62.1169 137.646 52.0369 137.646ZM52.0369 116.1C60.7309 116.1 67.4089 114.462 72.0709 111.186C76.8589 107.784 79.2529 103.311 79.2529 97.767V96.255C79.2529 90.711 76.9219 86.301 72.2599 83.025C67.7239 79.623 60.9829 77.922 52.0369 77.922C43.2169 77.922 36.4759 79.623 31.8139 83.025C27.1519 86.301 24.8209 90.711 24.8209 96.255V97.767C24.8209 103.311 27.1519 107.784 31.8139 111.186C36.6019 114.462 43.3429 116.1 52.0369 116.1ZM52.0369 56.376C60.1009 56.376 66.3379 54.927 70.7479 52.029C75.1579 49.131 77.3629 45.036 77.3629 39.744V38.232C77.3629 32.94 75.0949 28.845 70.5589 25.947C66.0229 23.049 59.8489 21.6 52.0369 21.6C44.2249 21.6 38.0509 23.049 33.5149 25.947C28.9789 28.845 26.7109 32.94 26.7109 38.232V39.744C26.7109 45.036 28.9159 49.131 33.3259 52.029C37.7359 54.927 43.9729 56.376 52.0369 56.376Z" fill="white"/>
</svg>
