<svg width="101" height="138" viewBox="0 0 101 138" fill="none" xmlns="http://www.w3.org/2000/svg">
<path d="M49.7835 137.646C39.9555 137.646 31.3875 136.008 24.0795 132.732C16.8975 129.456 11.2905 124.731 7.2585 118.557C3.3525 112.383 1.3995 105.012 1.3995 96.444H25.9695C25.9695 101.736 27.7965 106.335 31.4505 110.241C35.2305 114.147 41.3415 116.1 49.7835 116.1C58.3515 116.1 64.9035 113.895 69.4395 109.485C73.9755 104.949 76.2435 98.838 76.2435 91.152V77.544H72.8415C70.6995 80.064 67.4235 82.458 63.0135 84.726C58.7295 86.994 52.3035 88.128 43.7355 88.128C36.1755 88.128 29.1195 86.49 22.5675 83.214C16.0155 79.938 10.7235 75.213 6.6915 69.039C2.6595 62.739 0.643497 55.179 0.643497 46.359V44.091C0.643497 35.271 2.7225 27.585 6.8805 21.033C11.0385 14.481 16.8975 9.378 24.4575 5.724C32.0175 1.94399 40.8375 0.0539913 50.9175 0.0539913C60.9975 0.0539913 69.7545 1.94399 77.1885 5.724C84.6225 9.50399 90.3555 14.733 94.3875 21.411C98.4195 28.089 100.435 35.775 100.435 44.469V89.64C100.435 100.35 98.2305 109.296 93.8205 116.478C89.5365 123.534 83.5515 128.826 75.8655 132.354C68.3055 135.882 59.6115 137.646 49.7835 137.646ZM50.5395 68.85C55.8315 68.85 60.3675 67.905 64.1475 66.015C68.0535 64.125 71.0145 61.479 73.0305 58.077C75.1725 54.675 76.2435 50.643 76.2435 45.981V44.469C76.2435 37.413 73.9125 31.869 69.2505 27.837C64.7145 23.679 58.4775 21.6 50.5395 21.6C42.6015 21.6 36.3015 23.679 31.6395 27.837C27.1035 31.869 24.8355 37.413 24.8355 44.469V45.981C24.8355 50.643 25.8435 54.675 27.8595 58.077C30.0015 61.479 33.0255 64.125 36.9315 66.015C40.8375 67.905 45.3735 68.85 50.5395 68.85Z" fill="white"/>
</svg>
